<?xml version="1.0" encoding="iso-8859-1"?>
<!-- Generator: Adobe Illustrator 16.0.0, SVG Export Plug-In . SVG Version: 6.00 Build 0)  -->
<!DOCTYPE svg PUBLIC "-//W3C//DTD SVG 1.1//EN" "http://www.w3.org/Graphics/SVG/1.1/DTD/svg11.dtd">
<svg xmlns="http://www.w3.org/2000/svg" xmlns:xlink="http://www.w3.org/1999/xlink" version="1.1" id="Capa_1" x="0px" y="0px" width="512px" height="512px" viewBox="0 0 405.799 405.799" style="enable-background:new 0 0 405.799 405.799;" xml:space="preserve">
<g>
	<g>
		<path d="M397.899,140.524c0-8.711-7.062-15.772-15.772-15.772h-4.41V31.544h4.41c8.71,0,15.772-7.062,15.772-15.772    C397.899,7.061,390.837,0,382.127,0H110.333C82.84,0,60.475,22.367,60.475,49.86v56.576c0,6.466,1.25,12.641,3.5,18.316H23.671    c-8.71,0-15.772,7.061-15.772,15.772s7.063,15.772,15.772,15.772h4.412v93.208h-4.412c-8.71,0-15.772,7.062-15.772,15.771    s7.063,15.771,15.772,15.771h40.302c-2.25,5.675-3.5,11.852-3.5,18.315v56.575c0,27.494,22.366,49.861,49.858,49.861h271.793    c8.712,0,15.772-7.062,15.772-15.772c0-8.709-7.063-15.771-15.772-15.771h-4.41v-93.208h4.41c8.712,0,15.772-7.062,15.772-15.771    s-7.063-15.771-15.772-15.771h-40.302c2.25-5.674,3.5-11.85,3.5-18.316v-56.576c0-6.466-1.25-12.642-3.5-18.316h40.302    C390.837,156.296,397.899,149.235,397.899,140.524z M59.628,249.504v-30.832h101.801c8.71,0,15.772-7.061,15.772-15.772    c0-8.711-7.062-15.772-15.772-15.772H59.628v-30.832h50.704h185.135c10.098,0,18.313,8.217,18.313,18.316v56.576    c0,10.101-8.218,18.316-18.313,18.316H59.628z M346.171,281.048v30.832H244.368c-8.709,0-15.771,7.062-15.771,15.772    s7.062,15.771,15.771,15.771h101.805v30.832h-235.84c-10.099,0-18.315-8.217-18.315-18.315v-56.576    c0-10.099,8.217-18.315,18.315-18.315H346.171L346.171,281.048z M346.171,62.376H244.368c-8.709,0-15.771,7.062-15.771,15.772    s7.062,15.772,15.771,15.772h101.805v30.832h-235.84c-10.099,0-18.315-8.217-18.315-18.316V49.86    c0-10.099,8.217-18.316,18.315-18.316h235.839L346.171,62.376L346.171,62.376z" fill="#d2bcac"/>
	</g>
</g>
<g>
</g>
<g>
</g>
<g>
</g>
<g>
</g>
<g>
</g>
<g>
</g>
<g>
</g>
<g>
</g>
<g>
</g>
<g>
</g>
<g>
</g>
<g>
</g>
<g>
</g>
<g>
</g>
<g>
</g>
</svg>
