<?xml version="1.0" encoding="iso-8859-1"?>
<!-- Generator: Adobe Illustrator 16.0.0, SVG Export Plug-In . SVG Version: 6.00 Build 0)  -->
<!DOCTYPE svg PUBLIC "-//W3C//DTD SVG 1.1//EN" "http://www.w3.org/Graphics/SVG/1.1/DTD/svg11.dtd">
<svg xmlns="http://www.w3.org/2000/svg" xmlns:xlink="http://www.w3.org/1999/xlink" version="1.1" id="Capa_1" x="0px" y="0px" width="512px" height="512px" viewBox="0 0 394.318 394.318" style="enable-background:new 0 0 394.318 394.318;" xml:space="preserve">
<g>
	<g>
		<g>
			<path d="M280.005,252.457c18.08-31.783,13.587-73.022-13.49-100.098c-32.475-32.475-85.312-32.475-117.785,0     c-32.475,32.473-32.475,85.311,0,117.783c27.077,27.075,68.313,31.569,100.097,13.491l67.08,67.078     c8.597,8.597,22.584,8.597,31.178,0c8.597-8.595,8.598-22.582,0-31.179L280.005,252.457z M249.924,253.554     c-23.325,23.324-61.279,23.324-84.604,0c-23.326-23.323-23.326-61.283,0-84.605c23.326-23.326,61.279-23.326,84.604,0     C273.25,192.271,273.25,230.228,249.924,253.554z" fill="#FFFFFF"/>
			<path d="M373.305,65.521h-3.161c-0.938-7.583-6.576-14.057-14.562-16.385c-27.236-7.948-54.949-11.976-82.365-11.976     c-25.307,0-50.861,3.441-76.066,10.22c-25.204-6.779-50.763-10.22-76.069-10.22c-27.417,0-55.13,4.028-82.368,11.977     c-7.98,2.328-13.621,8.802-14.558,16.385h-3.144C9.407,65.521,0,74.256,0,85.028v211.261c0,10.773,9.406,19.51,21.012,19.51     h236.999l-16.751-16.755c-12.135,5.328-25.343,8.114-38.711,8.114c-25.652,0-49.745-9.965-67.841-28.061     c-2.719-2.721-5.251-5.574-7.597-8.55c-5.188-0.227-10.371-0.341-15.546-0.341c-20.59,0-41.326,1.793-61.951,5.35l-0.001-136.628     l0.001-53.495c20.646-4.214,41.417-6.347,61.953-6.347c20.535,0,41.305,2.133,61.95,6.347l-0.002,34.35     c9.268-2.922,19.034-4.447,29.04-4.447c6.194,0,12.297,0.588,18.248,1.724l0.002-31.626c20.645-4.214,41.411-6.347,61.95-6.347     c20.535,0,41.307,2.133,61.949,6.347v53.495v136.629c-10.949-1.89-21.932-3.265-32.905-4.153l39.176,39.176     c1.625,1.625,3.051,3.375,4.284,5.218h18.046c11.605,0,21.014-8.733,21.014-19.51V85.027     C394.316,74.256,384.91,65.521,373.305,65.521z" fill="#FFFFFF"/>
		</g>
	</g>
</g>
<g>
</g>
<g>
</g>
<g>
</g>
<g>
</g>
<g>
</g>
<g>
</g>
<g>
</g>
<g>
</g>
<g>
</g>
<g>
</g>
<g>
</g>
<g>
</g>
<g>
</g>
<g>
</g>
<g>
</g>
</svg>
